<svg width="120" height="35" viewBox="0 0 120 35" fill="none" xmlns="http://www.w3.org/2000/svg">
<path d="M7.9015 31C7.62441 31 7.38724 30.8264 7.18998 30.4791C6.99261 30.1321 6.89392 29.7148 6.89392 29.2273V6.77273C6.89392 6.3 6.99468 5.88636 7.19619 5.53182C7.39771 5.17727 7.63281 5 7.9015 5H15.2568C15.5339 5 15.7711 5.17353 15.9685 5.52059C16.1657 5.86785 16.2644 6.28523 16.2644 6.77273V11.2045C16.4659 11.2636 16.6338 11.4306 16.7682 11.7053C16.9025 11.9803 16.9697 12.2918 16.9697 12.6399V14.8386C16.9697 15.2129 16.9025 15.5379 16.7682 15.8136C16.6338 16.0894 16.4659 16.2568 16.2644 16.3159V29.2273C16.2644 29.7148 16.1657 30.1321 15.9685 30.4791C15.7711 30.8264 15.5339 31 15.2568 31H7.9015ZM7.9015 29.2273H15.2568V6.77273H7.9015V29.2273ZM9.74872 26.8636H13.4096C13.5523 26.8636 13.672 26.7782 13.7686 26.6072C13.8651 26.4364 13.9134 26.2247 13.9134 25.972C13.9134 25.7194 13.8651 25.5095 13.7686 25.342C13.672 25.1746 13.5523 25.0909 13.4096 25.0909H9.74872C9.60598 25.0909 9.48636 25.1764 9.38985 25.3474C9.29324 25.5181 9.24493 25.7299 9.24493 25.9826C9.24493 26.2351 9.29324 26.4451 9.38985 26.6125C9.48636 26.7799 9.60598 26.8636 9.74872 26.8636Z" fill="#1D4ED8"/>
<path d="M28.974 13.5703L25.8802 23H23.3881L27.6146 11.625H29.2006L28.974 13.5703ZM31.5443 23L28.4427 13.5703L28.1927 11.625H29.7943L34.0443 23H31.5443ZM31.4037 18.7656V20.6016H25.3959V18.7656H31.4037ZM42.4115 21.1719V23H36.6849V21.1719H42.4115ZM37.4427 11.625V23H35.099V11.625H37.4427ZM47.0599 11.625V23H44.724V11.625H47.0599ZM50.5599 11.625V13.4609H41.2787V11.625H50.5599ZM54.9115 23.1562C54.2552 23.1562 53.6667 23.0521 53.1459 22.8438C52.625 22.6302 52.1823 22.3359 51.8177 21.9609C51.4584 21.5859 51.1823 21.151 50.9896 20.6562C50.7969 20.1562 50.7006 19.625 50.7006 19.0625V18.75C50.7006 18.1094 50.7917 17.5234 50.974 16.9922C51.1563 16.4609 51.4167 16 51.7552 15.6094C52.099 15.2188 52.5157 14.9193 53.0052 14.7109C53.4948 14.4974 54.0469 14.3906 54.6615 14.3906C55.2605 14.3906 55.7917 14.4896 56.2552 14.6875C56.7188 14.8854 57.1068 15.1667 57.4193 15.5312C57.737 15.8958 57.9766 16.3333 58.1381 16.8438C58.2995 17.349 58.3802 17.9115 58.3802 18.5312V19.4688H51.6615V17.9688H56.1693V17.7969C56.1693 17.4844 56.112 17.2057 55.9974 16.9609C55.8881 16.7109 55.7214 16.513 55.4974 16.3672C55.2735 16.2214 54.987 16.1484 54.6381 16.1484C54.3412 16.1484 54.086 16.2135 53.8724 16.3438C53.6589 16.474 53.4844 16.6562 53.349 16.8906C53.2188 17.125 53.1198 17.401 53.0521 17.7188C52.9896 18.0312 52.9584 18.375 52.9584 18.75V19.0625C52.9584 19.401 53.0052 19.7135 53.099 20C53.198 20.2865 53.336 20.5339 53.5131 20.7422C53.6954 20.9505 53.9141 21.112 54.1693 21.2266C54.4297 21.3411 54.724 21.3984 55.0521 21.3984C55.4584 21.3984 55.836 21.3203 56.1849 21.1641C56.5391 21.0026 56.8438 20.7604 57.099 20.4375L58.1927 21.625C58.0157 21.8802 57.7735 22.125 57.4662 22.3594C57.1641 22.5938 56.7995 22.7865 56.3724 22.9375C55.9454 23.0833 55.4584 23.1562 54.9115 23.1562ZM63.1537 21.3984C63.4297 21.3984 63.6745 21.3464 63.8881 21.2422C64.1016 21.1328 64.2683 20.9818 64.3881 20.7891C64.5131 20.5911 64.5782 20.3594 64.5834 20.0938H66.7006C66.6954 20.6875 66.5365 21.2161 66.224 21.6797C65.9115 22.138 65.4922 22.5 64.9662 22.7656C64.4401 23.026 63.8516 23.1562 63.2006 23.1562C62.5443 23.1562 61.9714 23.0469 61.4818 22.8281C60.9974 22.6094 60.5938 22.3073 60.2709 21.9219C59.948 21.5312 59.7058 21.0781 59.5443 20.5625C59.3829 20.0417 59.3021 19.4844 59.3021 18.8906V18.6641C59.3021 18.0651 59.3829 17.5078 59.5443 16.9922C59.7058 16.4714 59.948 16.0182 60.2709 15.6328C60.5938 15.2422 60.9974 14.9375 61.4818 14.7188C61.9662 14.5 62.5339 14.3906 63.1849 14.3906C63.8776 14.3906 64.4844 14.5234 65.0052 14.7891C65.5313 15.0547 65.9427 15.4349 66.2396 15.9297C66.5417 16.4193 66.6954 17 66.7006 17.6719H64.5834C64.5782 17.3906 64.5183 17.1354 64.4037 16.9062C64.2943 16.6771 64.1329 16.4948 63.9193 16.3594C63.711 16.2188 63.4532 16.1484 63.1459 16.1484C62.8177 16.1484 62.5495 16.2188 62.3412 16.3594C62.1329 16.4948 61.9714 16.6823 61.8568 16.9219C61.7422 17.1562 61.6615 17.4245 61.6146 17.7266C61.573 18.0234 61.5521 18.3359 61.5521 18.6641V18.8906C61.5521 19.2188 61.573 19.5339 61.6146 19.8359C61.6563 20.138 61.7344 20.4062 61.849 20.6406C61.9688 20.875 62.1329 21.0599 62.3412 21.1953C62.5495 21.3307 62.8204 21.3984 63.1537 21.3984ZM70.2006 11V23H67.9506V11H70.2006ZM69.8802 18.4766H69.2631C69.2683 17.888 69.3464 17.3464 69.4974 16.8516C69.6485 16.3516 69.8646 15.9193 70.1459 15.5547C70.4271 15.1849 70.7631 14.8984 71.1537 14.6953C71.5495 14.4922 71.987 14.3906 72.4662 14.3906C72.8829 14.3906 73.2605 14.4505 73.599 14.5703C73.9427 14.6849 74.237 14.8724 74.4818 15.1328C74.7318 15.388 74.9245 15.724 75.0599 16.1406C75.1954 16.5573 75.2631 17.0625 75.2631 17.6562V23H72.9974V17.6406C72.9974 17.2656 72.9427 16.9714 72.8334 16.7578C72.7292 16.5391 72.5756 16.3854 72.3724 16.2969C72.1745 16.2031 71.9297 16.1562 71.6381 16.1562C71.3151 16.1562 71.0391 16.2161 70.8099 16.3359C70.586 16.4557 70.4063 16.6224 70.2709 16.8359C70.1355 17.0443 70.0365 17.2891 69.974 17.5703C69.9115 17.8516 69.8802 18.1536 69.8802 18.4766ZM87.0209 20.0234C87.0209 19.8203 86.9896 19.638 86.9271 19.4766C86.8698 19.3099 86.7605 19.1589 86.599 19.0234C86.4375 18.8828 86.211 18.7448 85.9193 18.6094C85.6276 18.474 85.25 18.3333 84.7865 18.1875C84.2709 18.0208 83.7813 17.8333 83.3177 17.625C82.8594 17.4167 82.4532 17.1745 82.099 16.8984C81.75 16.6172 81.474 16.2917 81.2709 15.9219C81.073 15.5521 80.974 15.1224 80.974 14.6328C80.974 14.1589 81.0782 13.7292 81.2865 13.3438C81.4948 12.9531 81.7865 12.6198 82.1615 12.3438C82.5365 12.0625 82.9792 11.8464 83.4896 11.6953C84.0052 11.5443 84.5704 11.4688 85.1849 11.4688C86.0235 11.4688 86.7552 11.6198 87.3802 11.9219C88.0052 12.224 88.4896 12.638 88.8334 13.1641C89.1823 13.6901 89.3568 14.2917 89.3568 14.9688H87.0287C87.0287 14.6354 86.9584 14.3438 86.8177 14.0938C86.6823 13.8385 86.474 13.638 86.1927 13.4922C85.9167 13.3464 85.5677 13.2734 85.1459 13.2734C84.7396 13.2734 84.4011 13.3359 84.1302 13.4609C83.8594 13.5807 83.6563 13.7448 83.5209 13.9531C83.3855 14.1562 83.3177 14.3854 83.3177 14.6406C83.3177 14.8333 83.3646 15.0078 83.4584 15.1641C83.5573 15.3203 83.7032 15.4661 83.8959 15.6016C84.0886 15.737 84.3256 15.8646 84.6068 15.9844C84.8881 16.1042 85.2136 16.2214 85.5834 16.3359C86.2032 16.5234 86.7474 16.7344 87.2162 16.9688C87.6901 17.2031 88.086 17.4661 88.4037 17.7578C88.7214 18.0495 88.961 18.3802 89.1224 18.75C89.2839 19.1198 89.3646 19.5391 89.3646 20.0078C89.3646 20.5026 89.2683 20.9453 89.0756 21.3359C88.8829 21.7266 88.6042 22.0573 88.2396 22.3281C87.875 22.599 87.4401 22.8047 86.9349 22.9453C86.4297 23.0859 85.8646 23.1562 85.2396 23.1562C84.6771 23.1562 84.1224 23.0833 83.5756 22.9375C83.0287 22.7865 82.5313 22.5599 82.0834 22.2578C81.6407 21.9557 81.2865 21.5703 81.0209 21.1016C80.7552 20.6328 80.6224 20.0781 80.6224 19.4375H82.974C82.974 19.7917 83.0287 20.0911 83.1381 20.3359C83.2474 20.5807 83.4011 20.7786 83.599 20.9297C83.8021 21.0807 84.0417 21.1901 84.3177 21.2578C84.599 21.3255 84.9063 21.3594 85.2396 21.3594C85.6459 21.3594 85.9792 21.3021 86.2396 21.1875C86.5052 21.0729 86.7006 20.9141 86.8256 20.7109C86.9558 20.5078 87.0209 20.2786 87.0209 20.0234ZM94.9584 14.5469V16.1406H90.0365V14.5469H94.9584ZM91.2552 12.4609H93.5052V20.4531C93.5052 20.6979 93.5365 20.8854 93.599 21.0156C93.6667 21.1458 93.7657 21.237 93.8959 21.2891C94.0261 21.3359 94.1901 21.3594 94.3881 21.3594C94.5287 21.3594 94.6537 21.3542 94.7631 21.3438C94.8776 21.3281 94.974 21.3125 95.0521 21.2969L95.0599 22.9531C94.8672 23.0156 94.6589 23.0651 94.4349 23.1016C94.211 23.138 93.9636 23.1562 93.6927 23.1562C93.198 23.1562 92.7657 23.0755 92.3959 22.9141C92.0313 22.7474 91.75 22.4818 91.5521 22.1172C91.3542 21.7526 91.2552 21.2734 91.2552 20.6797V12.4609ZM95.6771 18.8594V18.6953C95.6771 18.0755 95.7657 17.5052 95.9427 16.9844C96.1198 16.4583 96.3776 16.0026 96.7162 15.6172C97.0547 15.2318 97.4714 14.9323 97.9662 14.7188C98.461 14.5 99.0287 14.3906 99.6693 14.3906C100.31 14.3906 100.88 14.5 101.38 14.7188C101.88 14.9323 102.3 15.2318 102.638 15.6172C102.982 16.0026 103.242 16.4583 103.419 16.9844C103.596 17.5052 103.685 18.0755 103.685 18.6953V18.8594C103.685 19.474 103.596 20.0443 103.419 20.5703C103.242 21.0911 102.982 21.5469 102.638 21.9375C102.3 22.3229 101.883 22.6224 101.388 22.8359C100.893 23.0495 100.326 23.1562 99.6849 23.1562C99.0443 23.1562 98.474 23.0495 97.974 22.8359C97.4792 22.6224 97.0599 22.3229 96.7162 21.9375C96.3776 21.5469 96.1198 21.0911 95.9427 20.5703C95.7657 20.0443 95.6771 19.474 95.6771 18.8594ZM97.9271 18.6953V18.8594C97.9271 19.2135 97.9584 19.5443 98.0209 19.8516C98.0834 20.1589 98.1823 20.4297 98.3177 20.6641C98.4584 20.8932 98.6407 21.0729 98.8646 21.2031C99.0886 21.3333 99.362 21.3984 99.6849 21.3984C99.9974 21.3984 100.266 21.3333 100.49 21.2031C100.714 21.0729 100.893 20.8932 101.029 20.6641C101.164 20.4297 101.263 20.1589 101.326 19.8516C101.393 19.5443 101.427 19.2135 101.427 18.8594V18.6953C101.427 18.3516 101.393 18.0286 101.326 17.7266C101.263 17.4193 101.161 17.1484 101.021 16.9141C100.885 16.6745 100.706 16.487 100.482 16.3516C100.258 16.2161 99.987 16.1484 99.6693 16.1484C99.3516 16.1484 99.0808 16.2161 98.8568 16.3516C98.6381 16.487 98.4584 16.6745 98.3177 16.9141C98.1823 17.1484 98.0834 17.4193 98.0209 17.7266C97.9584 18.0286 97.9271 18.3516 97.9271 18.6953ZM107.318 16.3906V23H105.068V14.5469H107.185L107.318 16.3906ZM109.865 14.4922L109.826 16.5781C109.716 16.5625 109.583 16.5495 109.427 16.5391C109.276 16.5234 109.138 16.5156 109.013 16.5156C108.695 16.5156 108.419 16.5573 108.185 16.6406C107.956 16.7188 107.763 16.8359 107.607 16.9922C107.456 17.1484 107.341 17.3385 107.263 17.5625C107.19 17.7865 107.148 18.0417 107.138 18.3281L106.685 18.1875C106.685 17.6406 106.74 17.138 106.849 16.6797C106.958 16.2161 107.117 15.8125 107.326 15.4688C107.539 15.125 107.8 14.8594 108.107 14.6719C108.414 14.4844 108.766 14.3906 109.161 14.3906C109.286 14.3906 109.414 14.401 109.544 14.4219C109.675 14.4375 109.781 14.4609 109.865 14.4922ZM114.661 23.1562C114.005 23.1562 113.417 23.0521 112.896 22.8438C112.375 22.6302 111.932 22.3359 111.568 21.9609C111.208 21.5859 110.932 21.151 110.74 20.6562C110.547 20.1562 110.451 19.625 110.451 19.0625V18.75C110.451 18.1094 110.542 17.5234 110.724 16.9922C110.906 16.4609 111.167 16 111.505 15.6094C111.849 15.2188 112.266 14.9193 112.755 14.7109C113.245 14.4974 113.797 14.3906 114.411 14.3906C115.01 14.3906 115.542 14.4896 116.005 14.6875C116.469 14.8854 116.857 15.1667 117.169 15.5312C117.487 15.8958 117.727 16.3333 117.888 16.8438C118.05 17.349 118.13 17.9115 118.13 18.5312V19.4688H111.411V17.9688H115.919V17.7969C115.919 17.4844 115.862 17.2057 115.747 16.9609C115.638 16.7109 115.471 16.513 115.247 16.3672C115.023 16.2214 114.737 16.1484 114.388 16.1484C114.091 16.1484 113.836 16.2135 113.622 16.3438C113.409 16.474 113.234 16.6562 113.099 16.8906C112.969 17.125 112.87 17.401 112.802 17.7188C112.74 18.0312 112.708 18.375 112.708 18.75V19.0625C112.708 19.401 112.755 19.7135 112.849 20C112.948 20.2865 113.086 20.5339 113.263 20.7422C113.445 20.9505 113.664 21.112 113.919 21.2266C114.18 21.3411 114.474 21.3984 114.802 21.3984C115.208 21.3984 115.586 21.3203 115.935 21.1641C116.289 21.0026 116.594 20.7604 116.849 20.4375L117.943 21.625C117.766 21.8802 117.523 22.125 117.216 22.3594C116.914 22.5938 116.55 22.7865 116.122 22.9375C115.695 23.0833 115.208 23.1562 114.661 23.1562Z" fill="#1D4ED8"/>
</svg>
